<svg xmlns="http://www.w3.org/2000/svg" viewBox="0 0 66.68 83.6"><defs><style>.cls-1{fill:none;stroke:#48569d;stroke-miterlimit:10;stroke-width:1.89px;}</style></defs><g id="Capa_2" data-name="Capa 2"><g id="Layer_1" data-name="Layer 1"><path class="cls-1" d="M64.92,21.21,45.48,1.77a2.81,2.81,0,0,0-2-.83H3.75A2.81,2.81,0,0,0,.94,3.75v76.1a2.8,2.8,0,0,0,2.81,2.8H62.93a2.8,2.8,0,0,0,2.81-2.8V23.19A2.82,2.82,0,0,0,64.92,21.21ZM46.3,10.53l9.86,9.86H46.3V10.53ZM6.56,77V6.56H40.69V23.19A2.8,2.8,0,0,0,43.49,26H60.13V71.64a2.92,2.92,0,0,0-.57-.83l-9.44-9.43a22.3,22.3,0,0,0,1.29-1.88h.39a2.8,2.8,0,0,0,1.8-5,21.06,21.06,0,0,0-1.15-15A2.81,2.81,0,0,0,51.8,34H48.64A21.08,21.08,0,0,0,37,27.76a2.83,2.83,0,0,0,.68-1.84,2.8,2.8,0,0,0-2.81-2.8h-20a2.81,2.81,0,0,0,0,5.61H26.06A21.13,21.13,0,0,0,18,34H14.88a2.81,2.81,0,0,0-.64,5.54,20.91,20.91,0,0,0-2,9,21.14,21.14,0,0,0,.86,6,2.81,2.81,0,0,0,1.8,5h.39a21.15,21.15,0,0,0,4.05,4.84H14.88a2.81,2.81,0,0,0,0,5.61H50.77l4.82,4.82a2.76,2.76,0,0,0,2,.82,2.84,2.84,0,0,0,2-.82,3.07,3.07,0,0,0,.57-.83V77ZM48.85,48.57A15.51,15.51,0,1,1,33.34,33.05,15.53,15.53,0,0,1,48.85,48.57Z"/><path class="cls-1" d="M14.88,19.77h20a2.81,2.81,0,1,0,0-5.61h-20a2.81,2.81,0,0,0,0,5.61Z"/></g></g></svg>