<svg xmlns="http://www.w3.org/2000/svg" viewBox="0 0 89.52 77.58"><defs><style>.cls-1{fill:#f16169;}</style></defs><g id="Capa_2" data-name="Capa 2"><g id="Layer_1" data-name="Layer 1"><path class="cls-1" d="M85,14.92H68.63C69.57,7.77,66.38,0,58.18,0H31.33C23.15,0,19.94,7.77,20.89,14.92H4.48A4.47,4.47,0,0,0,0,19.4V49.23a4.49,4.49,0,0,0,3,4.21V73.1a4.48,4.48,0,0,0,4.48,4.48h74.6a4.47,4.47,0,0,0,4.47-4.48V53.44a4.5,4.5,0,0,0,3-4.21V19.4A4.48,4.48,0,0,0,85,14.92ZM23.87,10.44A7.48,7.48,0,0,1,31.33,3H58.19c6.6,0,8.07,6.56,7.46,11.94H62.6c.22-3.51.51-8.93-4.41-8.95H31.28c-4.91,0-4.65,5.44-4.44,9h-3Zm35.81,0-.06,4.5H29.82c.31-1.33-1-6.06,1.45-6C32,9.61,61.27,7.34,59.68,10.42ZM83.55,73.1a1.5,1.5,0,0,1-1.49,1.5H7.46A1.5,1.5,0,0,1,6,73.1V53.71H16.41c-.42,8.23.79,5.51,7.46,6,2.45.1,1.21-4.66,1.49-6H64.15c-.42,8.23.79,5.51,7.46,6,2.45.1,1.21-4.66,1.49-6H83.55ZM19.4,56.69V49.23a1.49,1.49,0,0,1,3,0v7.46Zm47.74,0c.41-1.45-1.51-11.24,2.55-8.49.76.56.32,3.23.43,4v4.47Zm19.39-7.46A1.5,1.5,0,0,1,85,50.73H73.1c1.05-7.87-10-7.87-8.95,0H25.36c1.06-7.88-10-7.86-8.95,0H4.48C1.21,52.16,3.74,20.15,3,19.4a1.5,1.5,0,0,1,1.5-1.5H85C88.35,16.49,85.75,48.47,86.53,49.23Z"/></g></g></svg>