<svg xmlns="http://www.w3.org/2000/svg" viewBox="0 0 82.39 82.06"><defs><style>.cls-1{fill:#f6ba36;stroke:#fff;stroke-miterlimit:10;stroke-width:0.94px;}</style></defs><g id="Capa_2" data-name="Capa 2"><g id="Layer_1" data-name="Layer 1"><path class="cls-1" d="M42.81,47.66l5.58,11.86a8.84,8.84,0,0,0,5.75,4.55l22.3,4.69V78.85a2.74,2.74,0,1,0,5.47,0V52.12a2.74,2.74,0,0,0-5.47,0V63.17L55.27,58.72a3.62,3.62,0,0,1-1.93-1.53L48,45.91l22.36-7.48a6.89,6.89,0,0,0,3.78-3,5.77,5.77,0,0,0,.54-4.78l-9.22-27,0-.06a5.13,5.13,0,0,0-5-3.09A7.17,7.17,0,0,0,58,.93l-53.15,20A6.87,6.87,0,0,0,.56,25.36a3.36,3.36,0,0,0,.89,3.16c.42.42,1,.83,3.73,1.19a45.56,45.56,0,0,0,5.2.37L11.7,34l-1.53.53L10,34.09a3.72,3.72,0,0,0-4.7-2.34l-1.69.56A3.73,3.73,0,0,0,1.29,37L6,51.2a3.73,3.73,0,0,0,4.71,2.35L12.41,53a3.69,3.69,0,0,0,2.15-1.86,3.74,3.74,0,0,0,.2-2.84l-.17-.49,1.53-.53L17,50a6.1,6.1,0,0,0,5.89,4h0a7,7,0,0,0,2.26-.37l17.64-5.9M5.05,25.55a3.61,3.61,0,0,1,1.25-.81l53.15-20a2.94,2.94,0,0,1,1-.19A1.32,1.32,0,0,1,61.62,5l.63,1.85L10.48,26A38.37,38.37,0,0,1,5.05,25.55Zm6.61,18.91-.11,0a2.43,2.43,0,0,0-1.36,3.06l.55,1.65-1,.32L5.3,36.08l1-.31.56,1.66A2.37,2.37,0,0,0,9.93,39L13,37.91l1.82,5.45Zm12.21,5.21a2.89,2.89,0,0,1-1,.16h0a2,2,0,0,1-2-1.19L14.32,28.93,63.58,10.74l7.25,21.2a1.73,1.73,0,0,1-.2,1.39,2.8,2.8,0,0,1-1.55,1.21l-24.51,8.2a3,3,0,0,0-.94.25l-.29.17Z"/></g></g></svg>