<svg xmlns="http://www.w3.org/2000/svg" viewBox="0 0 119.31 82.36"><defs><style>.cls-1{fill:none;stroke:#f16169;stroke-miterlimit:10;stroke-width:2.52px;}</style></defs><g id="Capa_2" data-name="Capa 2"><g id="Layer_1" data-name="Layer 1"><path class="cls-1" d="M118.06,15.86V8.1A7.05,7.05,0,0,0,111,1.26H85A6.85,6.85,0,0,0,78.13,8.1v7.76Z"/><path class="cls-1" d="M78.13,22.7V74.26A6.85,6.85,0,0,0,85,81.1h26a7.05,7.05,0,0,0,7.08-6.84V22.7ZM99,66.35a3.42,3.42,0,1,1,2.36-3.94A3.42,3.42,0,0,1,99,66.35Zm0-14.6a3.42,3.42,0,1,1,2.36-3.94A3.42,3.42,0,0,1,99,51.75Z"/><path class="cls-1" d="M63.53,1.26H8.1A6.85,6.85,0,0,0,1.26,8.1V54.41A6.85,6.85,0,0,0,8.1,61.25H63.53a6.85,6.85,0,0,0,6.85-6.84V8.1A6.85,6.85,0,0,0,63.53,1.26Z"/><path class="cls-1" d="M54.18,74.26H46.65V68.1H25.21v6.16H17.68a3.42,3.42,0,0,0,0,6.84h36.5a3.42,3.42,0,1,0,0-6.84Z"/></g></g></svg>