<svg xmlns="http://www.w3.org/2000/svg" viewBox="0 0 71.79 71.79"><defs><style>.cls-1{fill:none;stroke:#1dafa5;stroke-miterlimit:10;stroke-width:2.52px;}</style></defs><g id="Capa_2" data-name="Capa 2"><g id="Layer_1" data-name="Layer 1"><path class="cls-1" d="M68.28,23.76,48,3.52a7.76,7.76,0,0,0-10.94,0L33.84,6.77a7.76,7.76,0,0,0,0,10.93L54.09,38A7.75,7.75,0,0,0,65,38l3.25-3.25A7.76,7.76,0,0,0,68.28,23.76Z"/><path class="cls-1" d="M31,20.57A12,12,0,0,1,28.54,17L13,24.94a14.71,14.71,0,0,0-7.06,9.71L1.35,63.38a6.72,6.72,0,0,0,.43,3.76L25.63,43.29a7.46,7.46,0,1,1,2.87,2.87L4.65,70a6.34,6.34,0,0,0,2.57.52h0a8,8,0,0,0,1.19-.09l28.73-4.59a14.69,14.69,0,0,0,9.71-7.06l7.92-15.54a11.69,11.69,0,0,1-3.55-2.43Z"/></g></g></svg>