<svg xmlns="http://www.w3.org/2000/svg" viewBox="0 0 59.59 83.82"><defs><style>.cls-1{fill:#f65836;stroke:#fff;stroke-miterlimit:10;stroke-width:0.63px;}</style></defs><g id="Capa_2" data-name="Capa 2"><g id="Layer_1" data-name="Layer 1"><path class="cls-1" d="M55.84,51.5,31.74,30a2.93,2.93,0,0,0-3.89,0L3.75,51.5a3,3,0,0,0-1,2.19V80.58A2.93,2.93,0,0,0,5.7,83.5H53.89a2.93,2.93,0,0,0,2.93-2.92V53.69a3,3,0,0,0-1-2.19ZM51,77.65H8.62V55L29.8,36.13,51,55V77.65Z"/><path class="cls-1" d="M14.79,25.79a21.23,21.23,0,0,1,30,0,2.92,2.92,0,0,0,4.14,0,2.92,2.92,0,0,0,0-4.13,27.06,27.06,0,0,0-38.28,0,2.92,2.92,0,1,0,4.13,4.13Z"/><path class="cls-1" d="M58.42,12.17a40.47,40.47,0,0,0-57.25,0,2.93,2.93,0,1,0,4.14,4.14,34.63,34.63,0,0,1,49,0,2.93,2.93,0,0,0,4.14-4.14Z"/></g></g></svg>