<svg xmlns="http://www.w3.org/2000/svg" viewBox="0 0 51.87 89.67"><defs><style>.cls-1{fill:none;stroke:#f65836;stroke-miterlimit:10;stroke-width:2.52px;}</style></defs><g id="Capa_2" data-name="Capa 2"><g id="Layer_1" data-name="Layer 1"><path class="cls-1" d="M44.27,1.26H7.6A6.34,6.34,0,0,0,1.26,7.61V82.07A6.34,6.34,0,0,0,7.6,88.41H44.27a6.34,6.34,0,0,0,6.34-6.34V7.61A6.34,6.34,0,0,0,44.27,1.26ZM16.89,5.11H35c.46,0,.83.69.83,1.53S35.45,8.17,35,8.17H16.89c-.46,0-.83-.68-.83-1.53S16.43,5.11,16.89,5.11Zm9.05,77a4.05,4.05,0,1,1,4-4A4,4,0,0,1,25.94,82.14ZM45.86,68.27H6V12H45.86Z"/></g></g></svg>