<svg xmlns="http://www.w3.org/2000/svg" viewBox="0 0 103.87 71.13"><defs><style>.cls-1{fill:#df4b86;}</style></defs><g id="Capa_2" data-name="Capa 2"><g id="Layer_1" data-name="Layer 1"><path class="cls-1" d="M98.65,33.05A23.48,23.48,0,0,0,87,25.32a26.32,26.32,0,0,0-51.36-7A17.8,17.8,0,0,0,11.2,34.71a19.06,19.06,0,0,0,7.85,36.42H80.51A23.36,23.36,0,0,0,98.65,33.05ZM80.51,67.48H19.05a15.41,15.41,0,0,1-5.36-29.86,1.8,1.8,0,0,0,1.18-1.83c0-.36,0-.67,0-.95A14.18,14.18,0,0,1,35.93,22.46a1.81,1.81,0,0,0,1.62.08,1.83,1.83,0,0,0,1-1.26,22.67,22.67,0,0,1,44.78,5v.4a1.82,1.82,0,0,0,1.42,1.81,19.71,19.71,0,0,1-4.28,39Z"/></g></g></svg>