<svg xmlns="http://www.w3.org/2000/svg" viewBox="0 0 79.23 83.2"><defs><style>.cls-1{fill:none;stroke:#f6ba36;stroke-miterlimit:10;stroke-width:2.52px;}</style></defs><g id="Capa_2" data-name="Capa 2"><g id="Layer_1" data-name="Layer 1"><path class="cls-1" d="M75.33,29.58H72.69V49h2.64A2.64,2.64,0,0,0,78,46.39V32.22A2.64,2.64,0,0,0,75.33,29.58Z"/><path class="cls-1" d="M68.54,3.9A2.64,2.64,0,0,0,64,2C52.32,13.75,42.21,19.33,35.78,22a55.63,55.63,0,0,1-6.51,2.42V54.45C35.71,56,48.38,60.91,64,76.58a2.67,2.67,0,0,0,1.87.77h0a2.64,2.64,0,0,0,2.6-2.64V3.9Z"/><path class="cls-1" d="M25,24.38H4A2.9,2.9,0,0,0,1.26,27.3V54.45H25V24.38Z"/><path class="cls-1" d="M25.17,58.19H4.83L14,80.31a2.64,2.64,0,0,0,2.44,1.63H31.06a2.64,2.64,0,0,0,2.37-3.8Z"/></g></g></svg>