<svg xmlns="http://www.w3.org/2000/svg" viewBox="0 0 77.6 72.94"><defs><style>.cls-1{fill:#1dafa5;stroke:#fff;stroke-miterlimit:10;stroke-width:0.63px;}</style></defs><g id="Capa_2" data-name="Capa 2"><g id="Layer_1" data-name="Layer 1"><path class="cls-1" d="M70.52,40.91H64.77L77,12.48a2.26,2.26,0,0,0-4.15-1.78L59.87,40.91H17.74L4.79,10.7A2.25,2.25,0,0,0,.65,12.48L12.83,40.91H7.08A6.77,6.77,0,0,0,.31,47.67V61.2A6.78,6.78,0,0,0,7.08,68H9.49v2.4a2.26,2.26,0,1,0,4.51,0V68H63.61v2.4a2.26,2.26,0,1,0,4.51,0V68h2.4a6.78,6.78,0,0,0,6.77-6.77V47.67A6.77,6.77,0,0,0,70.52,40.91ZM72.78,61.2a2.26,2.26,0,0,1-2.26,2.26H7.08A2.26,2.26,0,0,1,4.82,61.2V47.67a2.26,2.26,0,0,1,2.26-2.25H70.52a2.26,2.26,0,0,1,2.26,2.25Z"/><path class="cls-1" d="M34,29.36a2.26,2.26,0,0,0,3.19,3.19,2.2,2.2,0,0,1,1.58-.66,2.25,2.25,0,0,1,1.59.66,2.26,2.26,0,0,0,3.19-3.19,6.75,6.75,0,0,0-9.55,0Z"/><path class="cls-1" d="M18.07,13.42a29.28,29.28,0,0,1,41.46,0,2.26,2.26,0,0,0,3.19-3.19,33.8,33.8,0,0,0-47.84,0,2.26,2.26,0,0,0,3.19,3.19Z"/><path class="cls-1" d="M56.34,19.8a2.26,2.26,0,0,0,0-3.19,24.77,24.77,0,0,0-35.08,0,2.26,2.26,0,0,0,3.19,3.19,20.28,20.28,0,0,1,28.7,0A2.26,2.26,0,0,0,56.34,19.8Z"/><path class="cls-1" d="M50,26.17A2.26,2.26,0,0,0,50,23a15.79,15.79,0,0,0-22.32,0,2.26,2.26,0,1,0,3.19,3.19,11.27,11.27,0,0,1,15.94,0A2.26,2.26,0,0,0,50,26.17Z"/><path class="cls-1" d="M47.82,49.93a2.25,2.25,0,0,0-2.25,2.25v4.51a2.26,2.26,0,1,0,4.51,0V52.18A2.26,2.26,0,0,0,47.82,49.93Z"/><path class="cls-1" d="M56.84,49.93a2.25,2.25,0,0,0-2.25,2.25v4.51a2.26,2.26,0,1,0,4.51,0V52.18A2.26,2.26,0,0,0,56.84,49.93Z"/><path class="cls-1" d="M65.86,49.93a2.25,2.25,0,0,0-2.25,2.25v4.51a2.26,2.26,0,1,0,4.51,0V52.18A2.26,2.26,0,0,0,65.86,49.93Z"/></g></g></svg>