<svg xmlns="http://www.w3.org/2000/svg" viewBox="0 0 85.55 82.1"><defs><style>.cls-1{fill:none;stroke:#df4b86;stroke-linecap:round;stroke-linejoin:round;stroke-width:2.58px;}</style></defs><g id="Capa_2" data-name="Capa 2"><g id="Layer_1" data-name="Layer 1"><path class="cls-1" d="M82.85,50.4a12.25,12.25,0,0,1-5.31-6l.26-.23A25.79,25.79,0,1,0,32.87,24a32.06,32.06,0,0,1,5.94,1.68A19.73,19.73,0,1,1,58.48,46.83c-.31,0-.63,0-.94,0a30.64,30.64,0,0,1,1,6.1,25.82,25.82,0,0,0,13-3.54l0,0a14.62,14.62,0,0,0,11,3A1,1,0,0,0,82.85,50.4Z"/><path class="cls-1" d="M27.37,28.65A26.07,26.07,0,0,0,8.16,72.36,12.05,12.05,0,0,1,3,78a1,1,0,0,0,.29,1.89A14.66,14.66,0,0,0,14,77.12,26.08,26.08,0,1,0,27.37,28.65Zm0,14.09a12,12,0,0,0-12,12,3.13,3.13,0,0,1-6.26,0A18.25,18.25,0,0,1,27.35,36.5a3.13,3.13,0,0,1,3.13,3.13A3.09,3.09,0,0,1,27.37,42.74Z"/></g></g></svg>